<svg xmlns:xlink="http://www.w3.org/1999/xlink" width="179" xmlns="http://www.w3.org/2000/svg" height="179" id="screenshot-18dbf8c0-4dfc-11ed-9f0e-41759b322663" viewBox="0 -0 179 179" style="-webkit-print-color-adjust: exact;" fill="none" version="1.1"><g id="shape-18dbf8c0-4dfc-11ed-9f0e-41759b322663" enable-background="new 0 0 512 512" height="512" width="512" rx="0" ry="0" style="fill: rgb(0, 0, 0);"><g id="shape-18de1ba0-4dfc-11ed-9f0e-41759b322663"><g id="fills-18de1ba0-4dfc-11ed-9f0e-41759b322663"><path rx="0" ry="0" d="M90.012,19C86.014,19,82.218,20.218,79.034,22.522C77.882,23.356,77.659,24.921,78.536,26.016C79.413,27.112,81.059,27.325,82.211,26.491C84.474,24.853,87.171,23.988,90.012,23.988C92.845,23.988,95.536,24.848,97.792,26.476C98.947,27.308,100.591,27.093,101.467,25.996C102.342,24.899,102.116,23.334,100.962,22.502C97.786,20.211,94,19,90.012,19ZZ" style="fill: rgb(243, 12, 64); fill-opacity: 1;"/></g></g><g id="shape-18dedef0-4dfc-11ed-9f0e-41759b322663"><g id="fills-18dedef0-4dfc-11ed-9f0e-41759b322663"><path rx="0" ry="0" d="M105.463,17.039C106.344,15.99,106.117,14.495,104.956,13.699C100.474,10.625,95.133,9,89.513,9C83.877,9,78.527,10.632,74.04,13.718C72.881,14.516,72.657,16.012,73.539,17.06C74.422,18.108,76.078,18.31,77.237,17.513C80.797,15.064,85.042,13.769,89.513,13.769C93.972,13.769,98.21,15.059,101.767,17.498C102.927,18.293,104.582,18.089,105.463,17.039ZZ" style="fill: rgb(243, 12, 64); fill-opacity: 1;"/></g></g><g id="shape-18df5420-4dfc-11ed-9f0e-41759b322663"><g id="fills-18df5420-4dfc-11ed-9f0e-41759b322663"><path rx="0" ry="0" d="M74.287,10.48C79.136,6.957,84.92,5.095,91.012,5.095C97.093,5.095,102.869,6.951,107.716,10.463C108.89,11.315,110.565,11.096,111.456,9.975C112.348,8.855,112.119,7.257,110.944,6.406C105.161,2.215,98.269,0,91.012,0C83.742,0,76.84,2.222,71.053,6.426C69.88,7.278,69.653,8.876,70.546,9.996C71.439,11.115,73.114,11.331,74.287,10.48ZZ" style="fill: rgb(243, 12, 64); fill-opacity: 1;"/></g></g><g id="shape-18e45d30-4dfc-11ed-9f0e-41759b322663"><g id="fills-18e45d30-4dfc-11ed-9f0e-41759b322663"><path rx="0" ry="0" d="M72.31,132.382C72.959,132.367,73.759,132.348,74.752,132.331L80.091,133.762C80.397,133.843,80.71,133.884,81.021,133.884C81.707,133.884,82.387,133.688,82.973,133.31C83.824,132.761,84.407,131.872,84.573,130.873C84.665,130.321,84.753,129.866,84.827,129.484C85.45,126.248,84.897,125.311,82.372,123.306C81.725,122.792,80.857,122.103,79.707,121.091C79.508,120.711,79.09,119.86,78.371,118.3L83.243,117.544C85.693,117.165,86.194,115.044,86.56,113.495C86.598,113.33,86.64,113.152,86.687,112.961C86.966,112.708,87.677,112.078,88.331,111.491C89.509,110.432,89.579,108.946,89.63,107.861C89.635,107.753,89.641,107.619,89.649,107.494L94.087,103.888C94.885,103.24,95.348,102.337,95.392,101.345C95.477,99.403,93.975,97.948,92.65,96.663C92.399,96.42,92.067,96.097,91.821,95.834C94.229,94.428,95.864,93.545,96.996,92.934C99.267,91.708,100.781,90.891,100.707,88.643C100.715,88.309,100.69,87.939,100.661,87.508C100.576,86.24,100.398,85.549,100.005,84.96L96.156,79.187C95.375,78.014,94.538,77.801,92.516,77.288C92.069,77.174,91.517,77.034,90.828,76.855C88.807,76.326,87.665,77.47,86.339,78.791C86.083,79.046,85.78,79.348,85.419,79.701C84.786,80.25,84.88,80.195,81.905,87.144C81.44,87.169,80.426,87.212,79.463,87.259C78.991,86.709,77.479,84.869,76.117,83.244C76.01,82.82,75.854,82.159,75.494,80.67C76.17,79.84,79.358,76.138,82.425,72.526C84.015,70.655,83.192,69.06,81.946,66.646C81.677,66.126,81.352,65.495,80.964,64.723C80.222,63.249,78.856,62.556,77.216,62.816C76.398,62.946,75.485,63.301,73.829,63.945C69.785,65.518,71.118,64.565,67.356,68.643C66.754,68.507,64.996,68.082,62.959,67.622C70.875,63.463,79.877,61.105,89.42,61.105C90.913,61.105,92.398,61.166,93.873,61.28L93.602,61.745C91.213,65.832,97.402,67.912,98.685,68.589C101.293,72.396,100.102,71.918,103.035,74.566L102.464,77.944C102.268,78.913,102.278,78.634,104.41,85.984C105.183,88.648,107.87,88.62,108.756,88.614C112.726,88.568,112.006,89.335,116.632,78.668C122.033,75.866,123.421,76.072,123.64,72.497C125.344,73.775,126.986,75.152,128.556,76.63C129.617,77.63,131.286,77.577,132.284,76.515C133.282,75.452,133.23,73.781,132.169,72.782C121.196,62.45,107.039,56.508,92.058,55.882L92.058,47.115C95.325,46.01,97.684,42.914,97.684,39.275C97.684,34.712,93.977,31,89.42,31C84.863,31,81.156,34.712,81.156,39.275C81.156,42.914,83.516,46.009,86.783,47.115L86.783,55.884C53.583,57.273,27,84.746,27,118.324C27,139.421,37.521,158.951,55.144,170.565C55.591,170.859,56.094,171,56.591,171C57.449,171,58.29,170.582,58.797,169.811C59.597,168.593,59.26,166.955,58.043,166.153C41.908,155.518,32.275,137.638,32.275,118.323C32.275,107.408,35.345,97.199,40.663,88.511C41.72,89.072,43.141,89.828,44.801,90.714C47.383,99.941,45.539,94.51,48.598,100.039L48.028,103.914C47.969,104.236,47.979,104.422,48.088,111.13C48.09,111.97,48.09,111.97,50.5,116.86L50.932,117.737C51.391,118.669,52.326,119.21,53.299,119.21C53.691,119.21,54.089,119.122,54.464,118.937C57.512,117.43,55.012,114.248,53.357,110.693C53.065,102.253,53.317,105.823,53.903,100.223C54.11,98.817,53.329,97.551,51.931,95.434C49.912,92.373,50.595,87.822,47.913,86.389C46.061,85.4,44.681,84.664,43.641,84.113C47.23,79.311,51.554,75.09,56.445,71.618C71.052,74.648,68.038,75.654,73.529,69.718C74.893,69.203,76.147,68.705,76.92,68.413C77.193,68.946,77.474,69.485,77.701,69.934C68.911,80.273,69.551,78.512,70.682,83.219C71.405,86.228,70.994,85.32,74.126,89.104C77.417,93.079,77.175,92.646,81.098,92.471C86.61,92.221,85.477,91.917,89.293,83.294C89.78,82.817,90.063,82.53,90.398,82.199C91.071,82.371,91.698,82.528,92.114,82.638L95.369,87.521C95.378,87.602,95.386,87.696,95.393,87.796C94.153,88.48,91.952,89.613,87.999,91.957C86.69,92.728,86.583,94.013,86.423,95.957C86.269,97.827,87.647,99.164,88.981,100.457C89.107,100.58,89.26,100.728,89.415,100.882C86.453,104.223,84.676,102.719,84.341,107.977C81.773,110.275,81.98,109.984,81.376,112.488L76.601,113.229C75.525,113.396,73.813,114.529,73.078,115.889C72.526,116.909,72.473,118.075,72.931,119.087C75.128,123.94,75.499,124.568,76.125,124.969C77.422,126.116,78.383,126.879,79.093,127.443C79.316,127.619,79.554,127.808,79.744,127.966C79.732,128.037,79.718,128.112,79.703,128.189L75.895,127.168C75.297,127.006,75.156,127.032,72.187,127.101C71.604,127.115,71.067,127.127,70.67,127.131C64.48,119.495,64.951,119.985,63.802,119.378C60.728,117.717,58.227,122.366,61.296,124.025L61.371,124.066C62.121,124.975,64.271,127.618,67.078,131.08C68.209,132.478,69.243,132.453,72.31,132.382ZZM118.391,71.881C111.574,75.297,112.94,73.863,110.051,80.615C109.649,81.554,109.303,82.364,109.031,82.98C108.39,80.775,107.904,79.124,107.724,78.475L108.374,74.63C108.808,72.062,106.128,70.37,105.53,69.713L102.983,65.498C102.322,64.404,101.129,63.874,99.748,63.26C99.539,63.167,99.279,63.051,99.02,62.93L99.559,62.009C106.27,63.212,112.686,65.604,118.534,69.078C118.44,70.396,118.415,71.313,118.391,71.881ZZM89.42,36.282C91.069,36.282,92.409,37.624,92.409,39.275C92.409,40.925,91.069,42.268,89.42,42.268C87.772,42.268,86.431,40.925,86.431,39.275C86.431,37.624,87.772,36.282,89.42,36.282ZZ" style="fill: rgb(243, 12, 64); fill-opacity: 1;"/></g></g><g id="shape-18e5e3d0-4dfc-11ed-9f0e-41759b322663"><g id="fills-18e5e3d0-4dfc-11ed-9f0e-41759b322663"><path rx="0" ry="0" d="M141.086,80.084C140.229,78.908,138.578,78.649,137.4,79.504C136.221,80.359,135.961,82.006,136.818,83.181C143.952,92.967,147.723,104.556,147.723,116.696C147.723,139.076,134.734,158.483,115.885,167.819C116.075,167.134,116.169,166.738,116.273,166.341C116.671,166.136,117.097,165.929,117.744,165.587C119.284,164.772,119.453,163.927,120.167,160.367C120.339,159.507,120.558,158.413,120.847,157.017C120.923,156.657,120.916,156.733,120.945,154.669C124.663,152.046,124.155,152.983,125.629,148.91C125.895,148.175,126.237,147.229,126.688,145.994C127.064,144.992,127.015,144.786,126.203,141.333C126.001,140.475,125.739,139.361,125.402,137.909C124.991,136.142,124.018,135.705,121.129,134.408C120.443,134.1,119.58,133.713,118.471,133.206C116.93,132.497,116.322,132.888,111.994,134.482C108.86,130.544,110.51,131.328,102.087,129.904C101.875,129.868,101.655,129.849,101.444,129.854L96.014,129.92C95.947,129.893,95.87,129.86,95.778,129.822L95.187,129.579C93.102,128.726,91.732,129.914,90.407,131.062C90.14,131.293,89.828,131.565,89.453,131.88C87.657,133.393,88.201,135.136,88.625,138.186C86.444,143.026,86.401,141.168,88.604,148.635C88.83,149.504,88.778,149.323,92.679,153.995C93.907,155.466,95.938,155.41,97.537,155.639L101.323,165.991C101.164,167.45,100.649,169.131,101.293,170.505L102.245,172.534C98.468,173.32,94.557,173.735,90.551,173.735C82.964,173.735,75.595,172.277,68.651,169.401C67.303,168.842,65.761,169.481,65.202,170.824C64.644,172.167,65.282,173.707,66.628,174.264C74.217,177.407,82.266,179,90.551,179C124.985,179,153,151.05,153,116.696C153,103.435,148.88,90.776,141.086,80.084ZZM106.269,168.692C106.911,162.609,107.072,167.895,102.185,152.987C101.233,150.381,98.133,150.471,96.377,150.197C94.857,148.379,93.876,147.212,93.577,146.847C93.153,145.411,92.52,143.323,92.347,142.711C93.843,139.466,94.087,139.146,93.919,137.949C93.775,136.88,93.614,135.833,93.544,135.317C93.733,135.155,93.953,134.963,94.107,134.83C96.707,135.877,97.383,134.334,106.457,135.975C110.832,141.477,110.399,140.603,116.91,138.283C118.322,138.925,119.776,139.57,120.443,139.881C120.948,142.048,121.414,144.004,121.558,144.661C120.815,146.7,120.237,148.313,120.016,148.899C117.071,150.956,115.712,151.595,115.68,153.758L115.659,155.226C115.641,156.524,114.602,161.244,114.592,161.288C112.281,162.458,111.703,162.899,111.073,165.376C110.898,166.066,110.659,167.003,110.162,168.484L109.119,170.645C108.564,170.836,108.006,171.02,107.443,171.194Z" style="fill: rgb(243, 12, 64); fill-opacity: 1;"/></g></g></g></svg>