<?xml version='1.0' encoding='iso-8859-1'?>
<!DOCTYPE svg PUBLIC '-//W3C//DTD SVG 1.1//EN' 'http://www.w3.org/Graphics/SVG/1.1/DTD/svg11.dtd'>
<svg version="1.1" xmlns="http://www.w3.org/2000/svg" viewBox="0 0 315 315" xmlns:xlink="http://www.w3.org/1999/xlink" enable-background="new 0 0 315 315">
  <g>
    <path d="m278.921,306.168l-37.059-196.308c-0.625-3.307-3.514-5.701-6.879-5.701h-70.493v-15.848c32.172-0.886 58.836-7.917 77.417-20.479 17.041-11.521 26.814-27.4 26.814-43.565 0-9.173-10.882-14.89-36.385-19.114-20.053-3.324-46.634-5.153-74.846-5.153-28.212,0-54.793,1.829-74.847,5.151-25.503,4.225-36.385,9.941-36.385,19.114 0,16.165 9.773,32.044 26.814,43.565 18.582,12.563 45.245,19.594 77.417,20.479v15.849h-70.492c-3.365,0-6.254,2.395-6.879,5.701l-37.16,196.841c-0.386,2.048 0.16,4.161 1.489,5.766 1.33,1.604 3.306,2.533 5.39,2.533h229.307c0.006,0 0.014,0 0.02,0 3.866,0 7-3.134 7-7-0.001-0.633-0.085-1.247-0.243-1.831zm-188.614-288.033c18.597-2.666 42.457-4.135 67.183-4.135 24.727,0 48.586,1.469 67.184,4.135 14.9,2.136 22.762,4.487 26.782,6.131-4.02,1.644-11.882,3.996-26.782,6.132-18.598,2.666-42.457,4.135-67.184,4.135-24.727,0-48.586-1.469-67.184-4.135-14.9-2.136-22.762-4.488-26.782-6.132 4.021-1.644 11.882-3.995 26.783-6.131zm-25.711,21.307c4.928,1.458 10.915,2.757 18.048,3.938 20.053,3.322 46.634,5.151 74.847,5.151 28.213,0 54.794-1.829 74.847-5.151 7.133-1.182 13.12-2.481 18.048-3.938-3.509,6.109-9.051,11.877-16.319,16.791-12.266,8.292-35.507,18.178-76.575,18.178-41.068,0-64.31-9.886-76.575-18.178-7.27-4.914-12.812-10.681-16.321-16.791zm-13.314,261.558l34.517-182.841h143.383l34.516,182.841h-212.416z"/>
  </g>
  <g>
    <path d="m157.49,130.524c-43.592,0-79.056,35.464-79.056,79.055 0,43.592 35.464,79.056 79.056,79.056 43.591,0 79.055-35.464 79.055-79.056-2.84217e-14-43.591-35.464-79.055-79.055-79.055zm40.912,86.055l23.761,.001c-1.365,12.697-6.401,24.306-14.019,33.754l-16.775-16.775c-2.734-2.732-7.166-2.732-9.9,0-2.733,2.734-2.733,7.166 0,9.9l16.775,16.775c-9.449,7.617-21.058,12.653-33.755,14.018v-23.761c0-3.866-3.134-7-7-7-3.866,0-7,3.134-7,7v23.761c-12.697-1.365-24.307-6.401-33.755-14.018l16.775-16.775c2.734-2.734 2.734-7.166 0.001-9.899s-7.166-2.733-9.899-0.001l-16.776,16.775c-7.617-9.449-12.653-21.058-14.019-33.755h23.761c3.866,0 7-3.134 7-7s-3.134-7-7-7h-23.761c1.365-12.697 6.401-24.306 14.019-33.755l16.775,16.776c1.367,1.366 3.159,2.05 4.95,2.05s3.583-0.684 4.95-2.05c2.733-2.734 2.733-7.166 0-9.9l-16.775-16.775c9.449-7.616 21.058-12.652 33.755-14.018v23.761c0,3.866 3.134,7 7,7 3.866,0 7-3.134 7-7v-23.761c12.697,1.365 24.306,6.401 33.754,14.019l-16.775,16.774c-2.733,2.734-2.733,7.166 0,9.9 1.367,1.366 3.159,2.05 4.95,2.05s3.583-0.684 4.95-2.05l16.775-16.775c7.617,9.448 12.653,21.058 14.019,33.755l-23.761-.001c-3.865,0-7,3.134-7,7s3.134,7 7,7z"/>
    <circle cx="157.49" cy="209.58" r="7.623"/>
  </g>
</svg>
