<svg
  width="28"
  height="28"
  viewBox="0 0 28 28"
  fill="none"
  xmlns="http://www.w3.org/2000/svg"
>
<path
    d="M17.6118 26.9562C17.6019 26.9562 17.5921 26.9562 17.5823 26.9555L9.02244 26.5703C8.93635 26.5665 8.85186 26.5457 8.77381 26.5091C8.69575 26.4726 8.62565 26.4211 8.56751 26.3574C8.50937 26.2938 8.46434 26.2194 8.43497 26.1384C8.4056 26.0573 8.39248 25.9713 8.39635 25.8852C8.40023 25.7991 8.42102 25.7146 8.45755 25.6366C8.49408 25.5585 8.54562 25.4884 8.60924 25.4303C8.67285 25.3722 8.7473 25.3271 8.82832 25.2978C8.90934 25.2684 8.99536 25.2553 9.08145 25.2591L16.8971 25.6109L16.6153 22.1591C16.6075 22.0636 16.6207 21.9675 16.654 21.8777C16.6873 21.7878 16.7398 21.7064 16.808 21.639L20.102 18.3825L19.2291 14.4755L17.5229 12.2934C17.4689 12.2245 17.4294 12.1454 17.4065 12.0609C17.3836 11.9764 17.3778 11.8882 17.3895 11.8014C17.4012 11.7146 17.4302 11.6311 17.4747 11.5557C17.5192 11.4803 17.5783 11.4146 17.6486 11.3624L21.3199 8.63474C21.389 8.58243 21.4677 8.54432 21.5517 8.52261C21.6356 8.50091 21.723 8.49605 21.8088 8.5083C21.8946 8.52056 21.9771 8.54969 22.0516 8.59401C22.1261 8.63833 22.191 8.69698 22.2427 8.76655C22.2944 8.83612 22.3318 8.91524 22.3528 8.99934C22.3737 9.08345 22.3778 9.17087 22.3648 9.25656C22.3518 9.34225 22.3219 9.42451 22.2769 9.4986C22.2319 9.57268 22.1727 9.63712 22.1027 9.68819L18.9711 12.0149L20.3543 13.7836C20.4144 13.8604 20.4565 13.9496 20.4778 14.0448L21.4622 18.4507C21.4864 18.5592 21.4827 18.672 21.4514 18.7787C21.42 18.8853 21.3621 18.9823 21.2831 19.0604L17.9484 22.3572L18.2656 26.2466C18.273 26.3369 18.2616 26.4279 18.232 26.5136C18.2025 26.5993 18.1556 26.678 18.0941 26.7447C18.0327 26.8114 17.9581 26.8646 17.875 26.901C17.792 26.9374 17.7023 26.9562 17.6116 26.9562H17.6118Z"
    fill="#DCDCE3"
  />
<path
    d="M7.43749 9.35071C3.38411 9.35071 0.0864563 12.6484 0.0864563 16.7017C0.0864563 21.3045 6.71294 27.4076 6.99502 27.6652C7.11594 27.7756 7.27376 27.8368 7.43749 27.8368C7.60123 27.8368 7.75905 27.7756 7.87997 27.6652C8.16205 27.4076 14.7885 21.3045 14.7885 16.7017C14.7885 12.6484 11.4909 9.35071 7.43749 9.35071Z"
    fill="#29337A"
  />
<path
    d="M7.4375 21.5142C10.0954 21.5142 12.25 19.3596 12.25 16.7017C12.25 14.0438 10.0954 11.8892 7.4375 11.8892C4.77963 11.8892 2.625 14.0438 2.625 16.7017C2.625 19.3596 4.77963 21.5142 7.4375 21.5142Z"
    fill="url(#paint0_linear_1367_866)"
  />
<path
    d="M23.2422 0.273438C22.0243 0.274885 20.8567 0.759332 19.9955 1.62051C19.1343 2.4817 18.6499 3.64929 18.6484 4.86719C18.6484 6.12292 19.3675 7.55858 20.7856 9.13429C21.4174 9.83416 22.1041 10.4824 22.8393 11.0727C22.9545 11.1623 23.0963 11.2109 23.2422 11.2109C23.3881 11.2109 23.5299 11.1623 23.6451 11.0727C24.3802 10.4824 25.067 9.83416 25.6988 9.13429C27.1169 7.55858 27.8359 6.12292 27.8359 4.86719C27.8345 3.64929 27.35 2.4817 26.4889 1.62051C25.6277 0.759332 24.4601 0.274885 23.2422 0.273438Z"
    fill="#0096A9"
  />
<path
    d="M23.2422 7.05469C24.4503 7.05469 25.4297 6.07531 25.4297 4.86719C25.4297 3.65906 24.4503 2.67969 23.2422 2.67969C22.0341 2.67969 21.0547 3.65906 21.0547 4.86719C21.0547 6.07531 22.0341 7.05469 23.2422 7.05469Z"
    fill="url(#paint1_linear_1367_866)"
  />
<defs>
<linearGradient
      id="paint0_linear_1367_866"
      x1="4.03616"
      y1="20.1031"
      x2="10.8388"
      y2="13.3004"
      gradientUnits="userSpaceOnUse"
    >
<stop offset="0.011" stop-color="#DCDCE3" />
<stop offset="1" stop-color="#EDEDF1" />
</linearGradient>
<linearGradient
      id="paint1_linear_1367_866"
      x1="1756.74"
      y1="515.74"
      x2="2004.12"
      y2="268.369"
      gradientUnits="userSpaceOnUse"
    >
<stop offset="0.011" stop-color="#DCDCE3" />
<stop offset="1" stop-color="#EDEDF1" />
</linearGradient>
</defs>
</svg>

