<svg
  width="28"
  height="28"
  viewBox="0 0 28 28"
  fill="none"
  xmlns="http://www.w3.org/2000/svg"
>
<g clip-path="url(#clip0_1367_875)">
<path
      d="M22.2031 1.69531H15.6406C12.4747 1.69531 9.89844 4.27159 9.89844 7.4375C9.89844 10.3254 12.0414 12.7223 14.8203 13.1212V15.6406C14.8203 15.9722 15.0198 16.2719 15.3266 16.3984C15.6292 16.5247 15.9841 16.457 16.2206 16.2206L19.2615 13.1797H22.2031C25.369 13.1797 28 10.6034 28 7.4375C28 4.27159 25.369 1.69531 22.2031 1.69531ZM15.6406 8.2577C15.1875 8.2577 14.8203 7.89042 14.8203 7.43739C14.8203 6.98436 15.1875 6.61708 15.6406 6.61708C16.0937 6.61708 16.4609 6.98436 16.4609 7.43739C16.4609 7.89042 16.0937 8.2577 15.6406 8.2577ZM18.9219 8.2577C18.4687 8.2577 18.1016 7.89042 18.1016 7.43739C18.1016 6.98436 18.4687 6.61708 18.9219 6.61708C19.3749 6.61708 19.7422 6.98436 19.7422 7.43739C19.7422 7.89042 19.3749 8.2577 18.9219 8.2577ZM22.2031 8.2577C21.75 8.2577 21.3828 7.89042 21.3828 7.43739C21.3828 6.98436 21.75 6.61708 22.2031 6.61708C22.6562 6.61708 23.0234 6.98436 23.0234 7.43739C23.0234 7.89042 22.6562 8.2577 22.2031 8.2577Z"
      fill="#0096A9"
    />
<path
      d="M18.4297 26.3047C19.7867 26.3047 20.8906 25.2008 20.8906 23.8438V20.5625C20.8906 20.2092 20.6647 19.896 20.3299 19.7846L15.4195 18.144C15.1792 18.0631 14.9165 18.0999 14.705 18.2393L12.6173 19.6308C10.4063 18.5766 7.7828 15.953 6.72853 13.742L8.12 11.6543C8.26016 11.4436 8.29544 11.1801 8.21532 10.9398L6.5747 6.02946C6.46341 5.69466 6.15016 5.46875 5.79688 5.46875H2.46094C1.10392 5.46875 0 6.56113 0 7.91815C0 17.3694 8.97848 26.3047 18.4297 26.3047Z"
      fill="#29337A"
    />
</g>
<defs>
<clipPath id="clip0_1367_875">
<rect width="28" height="28" fill="white" />
</clipPath>
</defs>
</svg>

