<svg xmlns:xlink="http://www.w3.org/1999/xlink" width="181.905" xmlns="http://www.w3.org/2000/svg" height="181.905" id="screenshot-f9249010-4e95-11ed-989b-c5e2586ec724" viewBox="0 0 181.905 181.905" style="-webkit-print-color-adjust: exact;" fill="none" version="1.1"><g id="shape-f9249010-4e95-11ed-989b-c5e2586ec724" rx="0" ry="0"><g xmlns:xlink="http://www.w3.org/1999/xlink" xml:space="preserve" x="0px" id="shape-63ae6880-4e09-11ed-beb1-6df0853bd028" style="fill: rgb(0, 0, 0);" ry="0" rx="0" y="0px" version="1.1"><g id="shape-63af52e0-4e09-11ed-beb1-6df0853bd028" rx="0" ry="0" style="fill: rgb(0, 0, 0);"><g id="shape-63af79f0-4e09-11ed-beb1-6df0853bd028" rx="0" ry="0" style="fill: rgb(0, 0, 0);"><g id="shape-63b03d40-4e09-11ed-beb1-6df0853bd028"><g id="fills-63b03d40-4e09-11ed-beb1-6df0853bd028"><path rx="0" ry="0" d="M158.918,158.818C158.804,155.326,155.867,152.591,152.359,152.708L143.087,153.019C163.597,136.134,175.429,109.786,171.893,81.405C168.088,50.874,147.225,26.15,119.279,16.068C115.98,14.878,112.333,16.576,111.133,19.861C109.933,23.146,111.635,26.773,114.934,27.963C138.585,36.496,156.086,57.367,159.277,82.977C162.186,106.32,152.596,128.908,134.963,143.361L140.271,133.611C141.944,130.537,140.799,126.699,137.713,125.038C134.627,123.376,130.77,124.521,129.096,127.594L112.999,157.161C110.646,161.494,113.938,166.655,118.793,166.491L152.771,165.353C156.28,165.235,159.032,162.31,158.918,158.818ZZ" style="fill: rgb(243, 12, 64); fill-opacity: 1;"/></g></g></g></g><g id="shape-63b06450-4e09-11ed-beb1-6df0853bd028" rx="0" ry="0" style="fill: rgb(0, 0, 0);"><g id="shape-63b06451-4e09-11ed-beb1-6df0853bd028" rx="0" ry="0" style="fill: rgb(0, 0, 0);"><g id="shape-63b0d980-4e09-11ed-beb1-6df0853bd028"><g id="fills-63b0d980-4e09-11ed-beb1-6df0853bd028"><path rx="0" ry="0" d="M70.775,162.043C71.974,158.758,70.273,155.131,66.974,153.941C43.321,145.409,25.819,124.538,22.628,98.927C19.719,75.584,29.31,52.996,46.944,38.543L41.635,48.293C39.962,51.367,41.107,55.205,44.193,56.866C47.28,58.528,51.138,57.383,52.811,54.31L68.909,24.743C71.24,20.463,68.021,15.247,63.115,15.413L29.135,16.552C25.626,16.669,22.874,19.595,22.988,23.087C23.103,26.583,26.042,29.314,29.548,29.196L38.82,28.885C18.308,45.77,6.475,72.119,10.012,100.499C13.816,131.03,34.681,155.754,62.628,165.836C65.928,167.026,69.575,165.328,70.775,162.043ZZ" style="fill: rgb(243, 12, 64); fill-opacity: 1;"/></g></g></g></g><g id="shape-63b10090-4e09-11ed-beb1-6df0853bd028" rx="0" ry="0" style="fill: rgb(0, 0, 0);"/><g id="shape-63b10091-4e09-11ed-beb1-6df0853bd028" rx="0" ry="0" style="fill: rgb(0, 0, 0);"/><g id="shape-63b127a0-4e09-11ed-beb1-6df0853bd028" rx="0" ry="0" style="fill: rgb(0, 0, 0);"/><g id="shape-63b127a1-4e09-11ed-beb1-6df0853bd028" rx="0" ry="0" style="fill: rgb(0, 0, 0);"/><g id="shape-63b14eb0-4e09-11ed-beb1-6df0853bd028" rx="0" ry="0" style="fill: rgb(0, 0, 0);"/><g id="shape-63b14eb1-4e09-11ed-beb1-6df0853bd028" rx="0" ry="0" style="fill: rgb(0, 0, 0);"/><g id="shape-63b175c0-4e09-11ed-beb1-6df0853bd028" rx="0" ry="0" style="fill: rgb(0, 0, 0);"/><g id="shape-63b19cd0-4e09-11ed-beb1-6df0853bd028" rx="0" ry="0" style="fill: rgb(0, 0, 0);"/><g id="shape-63b19cd1-4e09-11ed-beb1-6df0853bd028" rx="0" ry="0" style="fill: rgb(0, 0, 0);"/><g id="shape-63b1c3e0-4e09-11ed-beb1-6df0853bd028" rx="0" ry="0" style="fill: rgb(0, 0, 0);"/><g id="shape-63b21200-4e09-11ed-beb1-6df0853bd028" rx="0" ry="0" style="fill: rgb(0, 0, 0);"/><g id="shape-63b21201-4e09-11ed-beb1-6df0853bd028" rx="0" ry="0" style="fill: rgb(0, 0, 0);"/><g id="shape-63b23910-4e09-11ed-beb1-6df0853bd028" rx="0" ry="0" style="fill: rgb(0, 0, 0);"/><g id="shape-63b23911-4e09-11ed-beb1-6df0853bd028" rx="0" ry="0" style="fill: rgb(0, 0, 0);"/><g id="shape-63b26020-4e09-11ed-beb1-6df0853bd028" rx="0" ry="0" style="fill: rgb(0, 0, 0);"/></g><g id="shape-b4667880-4e09-11ed-beb1-6df0853bd028" enable-background="new 0 0 512.002 512.002" height="512" width="512" rx="0" ry="0" style="fill: rgb(0, 0, 0);"><g id="shape-b46ae550-4e09-11ed-beb1-6df0853bd028"><g id="fills-b46ae550-4e09-11ed-beb1-6df0853bd028"><path rx="0" ry="0" d="M90.455,132.452C111.981,132.452,129.925,115.819,131.365,94.135C132.889,70.343,114.246,50.964,91.379,50.464C68.735,49.932,49.452,68.131,49.452,91.452C49.452,114.113,67.791,132.452,90.455,132.452ZZM104.829,65.579C104.931,64.956,105.293,64.316,105.677,63.638C108.074,59.404,105.983,58.977,106.356,56.271C128.906,66.445,136.26,95.176,121.111,114.913C114.85,110.076,115.983,105.166,115.169,101.952C114.462,99.163,112.543,96.946,112.32,94.539C112.158,92.783,113.024,90.929,114.475,89.926C115.385,89.298,116.509,88.957,117.698,88.595C118.907,88.228,120.157,87.849,121.306,87.132C123.413,85.816,122.237,84.034,122.104,83.485C122.024,83.154,122.191,82.688,122.384,82.148C122.519,81.769,122.659,81.378,122.747,80.945C123.501,77.24,119.648,73.74,115.587,75.933C115.387,76.041,115.198,76.143,115.04,76.194C114.38,76.407,113.635,76.035,112.485,75.398C110.693,74.404,110.032,74.151,107.401,73.991C106.659,73.946,105.957,73.904,105.308,73.754C104.185,73.494,102.968,72.43,103.285,71.586C103.457,71.126,104.094,70.575,104.473,69.755C105.175,68.237,104.65,66.675,104.829,65.579ZZM91.376,52.867C91.61,52.873,91.818,52.881,92.023,52.889C90.974,54.453,90.77,54.757,90.475,56.006C90.422,56.231,90.372,56.443,90.308,56.62C90.234,56.822,90.134,56.943,90.086,56.98C90.07,56.981,90.053,56.982,90.037,56.983C89.871,56.993,89.594,57.01,89.295,57.138C88.451,57.5,88.254,58.301,88.148,58.732C88.131,58.802,88.106,58.903,88.089,58.956C88.053,58.98,87.969,59.014,87.865,59.021C87.572,59.038,87.19,58.922,86.818,58.809C86.492,58.71,85.947,58.545,85.796,58.331C85.753,58.269,85.697,58.141,85.643,58.018C85.57,57.85,85.486,57.659,85.367,57.458C84.48,55.975,83.414,56.354,81.949,53.804C85.045,53.108,88.252,52.794,91.376,52.867ZZM54.881,76.423L56.796,78.18C56.917,78.291,56.986,78.449,56.986,78.614L56.986,82.514C56.986,83.306,57.309,84.08,57.871,84.638L64.049,90.764C64.236,90.949,64.277,91.239,64.149,91.469L63.778,92.135C63.531,92.579,63.401,93.082,63.401,93.59L63.401,98.686C63.401,99.646,63.866,100.554,64.644,101.114L71.68,106.179C71.833,106.29,71.925,106.468,71.925,106.657L71.925,114.025C71.925,114.472,72.027,114.921,72.221,115.323L74.083,119.189C74.121,119.269,74.141,119.357,74.141,119.445L74.141,122.701C74.141,124.35,75.483,125.692,77.132,125.692L79.796,125.692C81.445,125.692,82.787,124.35,82.787,122.701L82.787,117.597C82.787,117.434,82.855,117.278,82.974,117.167L85.484,114.818C86.086,114.255,86.431,113.459,86.431,112.634L86.431,110.345C86.431,110.166,86.511,109.999,86.65,109.887L87.113,109.512C87.629,109.095,87.709,108.339,87.292,107.823C86.875,107.307,86.119,107.227,85.603,107.644L85.139,108.019C84.433,108.589,84.028,109.437,84.028,110.345L84.028,112.634C84.028,112.797,83.96,112.953,83.842,113.064L81.332,115.413C80.73,115.976,80.385,116.772,80.385,117.597L80.385,122.701C80.385,123.026,80.12,123.29,79.796,123.29L77.132,123.29C76.807,123.29,76.543,123.026,76.543,122.701L76.543,119.445C76.543,118.998,76.441,118.549,76.247,118.147L74.385,114.28C74.347,114.201,74.327,114.113,74.327,114.025L74.327,106.657C74.327,105.697,73.862,104.79,73.083,104.229L66.048,99.164C65.894,99.054,65.803,98.875,65.803,98.686L65.803,93.59C65.803,93.49,65.829,93.391,65.877,93.304L66.249,92.637C66.898,91.47,66.689,89.999,65.741,89.058L59.563,82.932C59.452,82.822,59.389,82.67,59.389,82.514L59.389,78.614C59.389,77.778,59.035,76.975,58.42,76.409L55.946,74.14C59.518,67.021,65.416,60.884,72.909,57.062C73.082,57.331,73.3,57.575,73.559,57.781L76.477,60.116C76.618,60.228,76.698,60.396,76.698,60.575L76.698,63.891C76.698,65.541,78.04,66.882,79.689,66.882L81.053,66.882C81.378,66.882,81.642,67.147,81.642,67.471L81.642,69.041C81.642,69.227,81.553,69.404,81.404,69.514L79.425,70.98C78.892,71.375,78.78,72.127,79.175,72.66C79.569,73.193,80.322,73.305,80.855,72.91L82.834,71.445C83.592,70.883,84.045,69.985,84.045,69.042L84.045,67.471C84.045,65.822,82.703,64.48,81.053,64.48L79.689,64.48C79.365,64.48,79.101,64.216,79.101,63.892L79.101,60.575C79.101,59.661,78.691,58.81,77.978,58.24L75.17,55.993C76.595,55.379,78.057,54.852,79.55,54.415C80.115,55.518,81.005,56.903,82.231,57.8C83.166,58.485,83.212,58.453,83.441,58.978C83.533,59.19,83.648,59.453,83.832,59.714C84.458,60.603,85.458,60.907,86.12,61.108C86.591,61.251,87.165,61.425,87.803,61.425C87.873,61.425,87.944,61.423,88.015,61.418C89.018,61.356,89.877,60.81,90.258,59.994C90.364,59.765,90.423,59.54,90.47,59.354C91.397,59.214,92.179,58.5,92.565,57.442C92.565,57.442,92.565,57.442,92.565,57.441C93.057,56.09,92.554,56.388,93.84,54.49C94.148,54.036,94.461,53.572,94.714,53.088C97.947,53.441,101.091,54.193,104.088,55.323C103.52,57.815,104.454,59.197,104.443,60.265C104.436,60.955,104.042,61.65,103.587,62.454C103.138,63.247,102.629,64.146,102.458,65.192C102.228,66.597,102.663,67.944,102.292,68.747C102.2,68.946,102.029,69.168,101.848,69.403C101.563,69.774,101.24,70.195,101.035,70.744C100.134,73.148,102.313,75.526,104.766,76.094C105.611,76.29,106.447,76.34,107.256,76.389C109.5,76.525,109.835,76.676,111.32,77.499C113.376,78.638,114.679,79.152,116.728,78.046C116.868,77.971,117,77.9,117.12,77.846C118.844,77.074,120.774,78.593,120.393,80.466C120.208,81.375,119.421,82.61,119.769,84.05C119.865,84.448,120.027,84.777,120.116,85.041C118.329,86.25,115.397,86.37,113.11,87.95C110.933,89.453,109.684,92.127,109.928,94.761C110.206,97.76,112.213,100.07,112.84,102.542C113.509,105.181,112.519,111.281,119.59,116.773C112.185,125.268,101.704,130.05,90.455,130.05C69.121,130.05,51.855,112.787,51.855,91.452C51.855,86.204,52.898,81.116,54.881,76.423ZZ" style="fill: rgb(243, 12, 64); fill-opacity: 1;"/></g></g><g id="shape-b46bf6c0-4e09-11ed-beb1-6df0853bd028"><g id="fills-b46bf6c0-4e09-11ed-beb1-6df0853bd028"><path rx="0" ry="0" d="M92.077,96.716L92.077,101.378C92.077,101.555,91.999,101.721,91.861,101.833L90.024,103.328C89.514,103.743,89.435,104.495,89.847,105.009C90.081,105.301,90.425,105.452,90.771,105.452C91.033,105.452,91.297,105.365,91.517,105.187L93.355,103.691C94.052,103.124,94.452,102.28,94.452,101.378L94.452,96.716C94.452,95.075,93.126,93.741,91.495,93.741L87.114,93.741C86.793,93.741,86.532,93.478,86.532,93.155C86.532,91.514,85.206,90.179,83.575,90.179L80.205,90.179C79.884,90.179,79.623,89.917,79.623,89.594L79.623,88.152C79.623,86.512,78.297,85.177,76.666,85.177L71.838,85.177C71.685,85.177,71.535,85.114,71.427,85.005L67.997,81.554C67.889,81.445,67.827,81.294,67.827,81.14L67.827,77.892C67.827,77.57,68.088,77.307,68.409,77.307L73.302,77.307C73.931,77.307,74.556,77.099,75.062,76.722L76.557,75.607C77.084,75.215,77.195,74.466,76.805,73.936C76.415,73.406,75.671,73.294,75.144,73.687L73.648,74.802C73.549,74.876,73.426,74.917,73.302,74.917L68.409,74.917C66.779,74.917,65.452,76.252,65.452,77.892L65.452,81.14C65.452,81.935,65.76,82.682,66.318,83.244L69.747,86.695C70.306,87.257,71.049,87.567,71.838,87.567L76.666,87.567C76.987,87.567,77.248,87.829,77.248,88.152L77.248,89.594C77.248,91.234,78.575,92.569,80.205,92.569L83.575,92.569C83.896,92.569,84.157,92.832,84.157,93.155C84.157,94.796,85.484,96.13,87.114,96.13L91.496,96.13C91.816,96.131,92.077,96.393,92.077,96.716ZZ" style="fill: rgb(243, 12, 64); fill-opacity: 1;"/></g></g></g></g></svg>