<svg xmlns:xlink="http://www.w3.org/1999/xlink" width="121" xmlns="http://www.w3.org/2000/svg" height="121" id="screenshot-24f04d30-4e03-11ed-beb1-6df0853bd028" viewBox="0 0 121 121" style="-webkit-print-color-adjust: exact;" fill="none" version="1.1"><g id="shape-24f04d30-4e03-11ed-beb1-6df0853bd028" height="512" width="512" rx="0" ry="0" style="fill: rgb(0, 0, 0);"><g id="shape-24f07441-4e03-11ed-beb1-6df0853bd028" rx="0" ry="0" style="fill: rgb(0, 0, 0);"><g id="shape-24f07442-4e03-11ed-beb1-6df0853bd028"><g id="fills-24f07442-4e03-11ed-beb1-6df0853bd028"><path rx="0" ry="0" d="M40.404,109.137C49.426,112.45,64.08,117.627,85.585,116.938C88.214,116.85,90.842,116.749,93.469,116.636C103.032,116.201,111.735,108.635,113.931,99.058C116.373,88.207,118.636,77.425,120.67,66.723C122.959,54.705,113.033,43.541,100.391,43.289C92.355,43.175,84.318,43.096,76.282,43.054C76.282,43.054,80.074,35.408,79.864,22.652C79.535,7.332,68.299,1.993,63.414,2C58.496,1.986,56.012,4.589,55.937,17.385C55.911,28.325,46.428,37.387,38.957,42.812C38.957,42.812,34.324,45.532,26,45.532L26,99.771C26,99.771,31.271,105.79,40.404,109.137ZZ" style="fill: rgb(245, 180, 139);"/></g></g><g id="shape-24f07443-4e03-11ed-beb1-6df0853bd028"><g id="fills-24f07443-4e03-11ed-beb1-6df0853bd028"><path rx="0" ry="0" d="M38.957,42C38.957,42,34.324,44.75,26,44.75L26,99.582C26,99.582,31.271,105.668,40.404,109.051C49.426,112.4,64.08,117.634,85.585,116.937C88.214,116.848,90.842,116.747,93.469,116.632C103.032,116.192,111.735,108.544,113.931,98.862C116.373,87.892,118.636,76.992,120.67,66.172C122.959,54.023,113.033,42.737,100.391,42.483C92.355,42.367,84.318,42.288,76.282,42.245Z" style="fill: rgb(255, 196, 155);"/></g></g><g id="shape-24f07444-4e03-11ed-beb1-6df0853bd028"><g id="fills-24f07444-4e03-11ed-beb1-6df0853bd028"><path rx="0" ry="0" d="M2.908,103.537C3.914,108.911,9.519,113.495,16.129,114.254C18.305,114.502,20.483,114.734,22.665,114.948C27.906,115.461,32.165,112.136,31.995,107.744C31.17,87.652,30.87,67.563,31.093,47.474C31.138,43.076,26.631,39.661,21.222,40.027C18.979,40.174,16.735,40.336,14.489,40.514C7.694,41.06,2.148,45.436,1.437,50.776C-0.903,68.381,-0.367,85.844,2.908,103.537ZZ" style="fill: rgb(73, 150, 170);"/></g></g><g id="shape-24f07445-4e03-11ed-beb1-6df0853bd028"><g id="fills-24f07445-4e03-11ed-beb1-6df0853bd028"><path rx="0" ry="0" d="M29.97,68.935C29.911,61.709,29.921,54.484,30,47.259C30.043,42.987,25.694,39.671,20.475,40.026C18.31,40.169,16.144,40.326,13.977,40.499C7.42,41.03,2.068,45.279,1.382,50.466C-0.26,62.913,-0.44,75.51,0.847,88C12.142,84.477,22.229,77.874,29.97,68.935ZZ" style="fill: rgb(72, 164, 223);"/></g></g></g></g></svg>